<svg width="70" height="47" viewBox="0 0 70 47" fill="none" xmlns="http://www.w3.org/2000/svg">
<path d="M64.2463 20.7091V22.8196H65.0133C65.8224 22.8196 66.4565 22.5188 66.4565 21.7165C66.4565 21.1855 66.1949 20.7068 65.1751 20.7068C64.8559 20.7068 64.683 20.6955 64.2463 20.7091ZM62.127 28.1642V18.6396C62.6435 18.6396 65.0133 18.6396 65.2793 18.6396C67.8087 18.6396 68.7088 19.9319 68.7088 21.6892C68.7088 23.4578 67.6491 24.1803 67.1459 24.4401L69.826 28.1642H67.2567L65.0266 24.8618H64.2463V28.1642H62.127Z" fill="#F41707"/>
<path d="M59.5793 24.0663C59.5793 26.9791 57.7793 28.1642 55.793 28.1642C53.4099 28.1642 51.7539 26.7626 51.7539 23.9706V18.6396H53.8732V23.5079C53.8732 24.9917 54.3099 26.1221 55.793 26.1221C57.0765 26.1221 57.46 25.1558 57.46 23.631V18.6396H59.5793V24.0663Z" fill="#F41707"/>
<path d="M46.4825 46.9034H0.862305V0H46.4825V16.0478H44.3677V2.17434H2.97495V44.7291H44.3677V30.7508H46.4825V46.9034Z" fill="#F41707"/>
<path d="M37.3733 28.1661L32.9773 22.4476V28.1661H30.9888V18.6367H32.6847L37.0829 24.3803L37.0785 18.6367H39.0648L39.0692 28.1661H37.3733Z" fill="#F41707"/>
<path d="M41.6191 18.6353H49.3005V20.6774H46.5184V28.1667H44.3991V20.6774H41.6191V18.6353Z" fill="#F41707"/>
<path d="M10.1816 18.6348H12.3009V22.7874L15.3336 18.6348H17.8763L14.3937 23.0336L18.1534 28.1663H15.4666L12.3009 23.6307V28.1663H10.1816V18.6348Z" fill="#F41707"/>
<path d="M23.68 26.2021C25.3892 26.2021 26.276 24.9599 26.276 23.4009C26.276 21.7098 25.132 20.5998 23.68 20.5998C22.1902 20.5998 21.0862 21.7098 21.0862 23.4009C21.0862 24.985 22.2412 26.2021 23.68 26.2021ZM23.68 18.6191C26.4178 18.6191 28.4618 20.4539 28.4618 23.4009C28.4618 26.2021 26.4178 28.1827 23.68 28.1827C20.9444 28.1827 18.9004 26.3457 18.9004 23.4009C18.9004 20.7183 20.8158 18.6191 23.68 18.6191Z" fill="#F41707"/>
</svg>
