<svg width="175" height="28" viewBox="0 0 175 28" fill="none" xmlns="http://www.w3.org/2000/svg">
<path d="M8.708 22.28C7.196 22.28 5.73067 22.0653 4.312 21.636C2.912 21.2067 1.80133 20.6373 0.98 19.928L2.24 17.1C3.04267 17.7347 4.02267 18.2573 5.18 18.668C6.356 19.06 7.532 19.256 8.708 19.256C10.164 19.256 11.2467 19.0227 11.956 18.556C12.684 18.0893 13.048 17.4733 13.048 16.708C13.048 16.148 12.8427 15.6907 12.432 15.336C12.04 14.9627 11.536 14.6733 10.92 14.468C10.304 14.2627 9.464 14.0293 8.4 13.768C6.90667 13.4133 5.69333 13.0587 4.76 12.704C3.84533 12.3493 3.052 11.7987 2.38 11.052C1.72667 10.2867 1.4 9.26 1.4 7.972C1.4 6.88933 1.68933 5.90933 2.268 5.032C2.86533 4.136 3.752 3.42667 4.928 2.904C6.12267 2.38133 7.57867 2.12 9.296 2.12C10.4907 2.12 11.6667 2.26933 12.824 2.568C13.9813 2.86667 14.98 3.296 15.82 3.856L14.672 6.684C13.8133 6.18 12.9173 5.79733 11.984 5.536C11.0507 5.27467 10.1453 5.144 9.268 5.144C7.83067 5.144 6.75733 5.38667 6.048 5.872C5.35733 6.35733 5.012 7.00133 5.012 7.804C5.012 8.364 5.208 8.82133 5.6 9.176C6.01067 9.53067 6.524 9.81067 7.14 10.016C7.756 10.2213 8.596 10.4547 9.66 10.716C11.116 11.052 12.3107 11.4067 13.244 11.78C14.1773 12.1347 14.9707 12.6853 15.624 13.432C16.296 14.1787 16.632 15.1867 16.632 16.456C16.632 17.5387 16.3333 18.5187 15.736 19.396C15.1573 20.2733 14.2707 20.9733 13.076 21.496C11.8813 22.0187 10.4253 22.28 8.708 22.28ZM29.4534 21.188C29.0427 21.524 28.5387 21.776 27.9414 21.944C27.3627 22.112 26.7467 22.196 26.0934 22.196C24.4507 22.196 23.1814 21.7667 22.2854 20.908C21.3894 20.0493 20.9414 18.7987 20.9414 17.156V9.96H18.4774V7.16H20.9414V3.744H24.4414V7.16H28.4454V9.96H24.4414V17.072C24.4414 17.8 24.6187 18.36 24.9734 18.752C25.328 19.1253 25.8414 19.312 26.5134 19.312C27.2974 19.312 27.9507 19.1067 28.4734 18.696L29.4534 21.188ZM46.6191 7.048L39.6191 23.204C38.9658 24.828 38.1725 25.9667 37.2391 26.62C36.3058 27.292 35.1765 27.628 33.8511 27.628C33.1045 27.628 32.3671 27.5067 31.6391 27.264C30.9111 27.0213 30.3138 26.6853 29.8471 26.256L31.2471 23.68C31.5831 23.9973 31.9751 24.2493 32.4231 24.436C32.8898 24.6227 33.3565 24.716 33.8231 24.716C34.4391 24.716 34.9431 24.5573 35.3351 24.24C35.7458 23.9227 36.1191 23.3907 36.4551 22.644L36.7071 22.056L30.1831 7.048H33.8231L38.5271 18.108L43.2591 7.048H46.6191ZM49.3666 1.224H52.8666V22H49.3666V1.224ZM72.0764 14.608C72.0764 14.8507 72.0577 15.196 72.0204 15.644H60.2884C60.4937 16.7453 61.0257 17.6227 61.8844 18.276C62.7617 18.9107 63.8444 19.228 65.1324 19.228C66.775 19.228 68.1284 18.6867 69.1924 17.604L71.0684 19.76C70.3964 20.5627 69.547 21.1693 68.5204 21.58C67.4937 21.9907 66.3364 22.196 65.0484 22.196C63.4057 22.196 61.959 21.8693 60.7084 21.216C59.4577 20.5627 58.487 19.6573 57.7964 18.5C57.1244 17.324 56.7884 15.9987 56.7884 14.524C56.7884 13.068 57.115 11.7613 57.7684 10.604C58.4404 9.428 59.3644 8.51333 60.5404 7.86C61.7164 7.20667 63.0417 6.88 64.5164 6.88C65.9724 6.88 67.2697 7.20667 68.4084 7.86C69.5657 8.49467 70.4617 9.4 71.0964 10.576C71.7497 11.7333 72.0764 13.0773 72.0764 14.608ZM64.5164 9.68C63.3964 9.68 62.4444 10.016 61.6604 10.688C60.895 11.3413 60.4284 12.2187 60.2604 13.32H68.7444C68.595 12.2373 68.1377 11.36 67.3724 10.688C66.607 10.016 65.655 9.68 64.5164 9.68ZM93.7046 22.28C91.726 22.28 89.934 21.8507 88.3286 20.992C86.742 20.1147 85.4913 18.9107 84.5766 17.38C83.6806 15.8493 83.2326 14.1227 83.2326 12.2C83.2326 10.2773 83.69 8.55067 84.6046 7.02C85.5193 5.48933 86.77 4.29467 88.3566 3.436C89.962 2.55867 91.754 2.12 93.7326 2.12C95.338 2.12 96.8033 2.4 98.1286 2.96C99.454 3.52 100.574 4.332 101.489 5.396L99.1366 7.608C97.718 6.07733 95.9726 5.312 93.9006 5.312C92.5566 5.312 91.3526 5.61067 90.2886 6.208C89.2246 6.78667 88.394 7.59867 87.7966 8.644C87.1993 9.68933 86.9006 10.8747 86.9006 12.2C86.9006 13.5253 87.1993 14.7107 87.7966 15.756C88.394 16.8013 89.2246 17.6227 90.2886 18.22C91.3526 18.7987 92.5566 19.088 93.9006 19.088C95.9726 19.088 97.718 18.3133 99.1366 16.764L101.489 19.004C100.574 20.068 99.4446 20.88 98.1006 21.44C96.7753 22 95.31 22.28 93.7046 22.28ZM113.684 6.88C115.57 6.88 117.082 7.43067 118.22 8.532C119.359 9.63333 119.928 11.2667 119.928 13.432V22H116.428V13.88C116.428 12.5733 116.12 11.5933 115.504 10.94C114.888 10.268 114.011 9.932 112.872 9.932C111.584 9.932 110.567 10.324 109.82 11.108C109.074 11.8733 108.7 12.984 108.7 14.44V22H105.2V1.224H108.7V8.784C109.279 8.168 109.988 7.70133 110.828 7.384C111.687 7.048 112.639 6.88 113.684 6.88ZM130.64 6.88C132.843 6.88 134.523 7.412 135.68 8.476C136.856 9.52133 137.444 11.108 137.444 13.236V22H134.14V20.18C133.711 20.8333 133.095 21.3373 132.292 21.692C131.508 22.028 130.556 22.196 129.436 22.196C128.316 22.196 127.336 22.0093 126.496 21.636C125.656 21.244 125.003 20.712 124.536 20.04C124.088 19.3493 123.864 18.5747 123.864 17.716C123.864 16.372 124.359 15.2987 125.348 14.496C126.356 13.6747 127.934 13.264 130.08 13.264H133.944V13.04C133.944 11.9947 133.627 11.192 132.992 10.632C132.376 10.072 131.452 9.792 130.22 9.792C129.38 9.792 128.55 9.92267 127.728 10.184C126.926 10.4453 126.244 10.8093 125.684 11.276L124.312 8.728C125.096 8.13067 126.039 7.67333 127.14 7.356C128.242 7.03867 129.408 6.88 130.64 6.88ZM130.164 19.648C131.042 19.648 131.816 19.452 132.488 19.06C133.179 18.6493 133.664 18.0707 133.944 17.324V15.588H130.332C128.316 15.588 127.308 16.2507 127.308 17.576C127.308 18.2107 127.56 18.7147 128.064 19.088C128.568 19.4613 129.268 19.648 130.164 19.648ZM142.496 7.048H145.996V22H142.496V7.048ZM144.26 4.584C143.625 4.584 143.093 4.388 142.664 3.996C142.235 3.58533 142.02 3.08133 142.02 2.484C142.02 1.88667 142.235 1.392 142.664 0.999998C143.093 0.589333 143.625 0.384 144.26 0.384C144.895 0.384 145.427 0.579999 145.856 0.971999C146.285 1.34533 146.5 1.82133 146.5 2.4C146.5 3.016 146.285 3.53867 145.856 3.968C145.445 4.37867 144.913 4.584 144.26 4.584ZM154.482 9.232C155.49 7.664 157.263 6.88 159.802 6.88V10.212C159.503 10.156 159.233 10.128 158.99 10.128C157.627 10.128 156.563 10.5293 155.798 11.332C155.033 12.116 154.65 13.2547 154.65 14.748V22H151.15V7.048H154.482V9.232ZM168.006 22.196C166.792 22.196 165.607 22.0373 164.45 21.72C163.292 21.4027 162.368 21.0013 161.678 20.516L163.022 17.856C163.694 18.304 164.496 18.668 165.43 18.948C166.382 19.2093 167.315 19.34 168.23 19.34C170.32 19.34 171.366 18.7893 171.366 17.688C171.366 17.1653 171.095 16.8013 170.554 16.596C170.031 16.3907 169.182 16.1947 168.006 16.008C166.774 15.8213 165.766 15.6067 164.982 15.364C164.216 15.1213 163.544 14.7013 162.966 14.104C162.406 13.488 162.126 12.6387 162.126 11.556C162.126 10.1373 162.714 9.008 163.89 8.168C165.084 7.30933 166.69 6.88 168.706 6.88C169.732 6.88 170.759 7.00133 171.786 7.244C172.812 7.468 173.652 7.776 174.306 8.168L172.962 10.828C171.692 10.0813 170.264 9.708 168.678 9.708C167.651 9.708 166.867 9.86667 166.326 10.184C165.803 10.4827 165.542 10.884 165.542 11.388C165.542 11.948 165.822 12.3493 166.382 12.592C166.96 12.816 167.847 13.0307 169.042 13.236C170.236 13.4227 171.216 13.6373 171.982 13.88C172.747 14.1227 173.4 14.5333 173.942 15.112C174.502 15.6907 174.782 16.512 174.782 17.576C174.782 18.976 174.175 20.096 172.962 20.936C171.748 21.776 170.096 22.196 168.006 22.196Z" fill="#495665"/>
</svg>
